<svg xmlns="http://www.w3.org/2000/svg" width="1440" height="900"><path d="M806,553L964,461L736,384Z" fill="#5ca3d0" stroke="#5ca3d0" stroke-width="1.51"/><path d="M964,461L756,323L736,384Z" fill="#70aed5" stroke="#70aed5" stroke-width="1.51"/><path d="M736,384L669,405L806,553Z" fill="#6aadd5" stroke="#6aadd5" stroke-width="1.51"/><path d="M654,272L669,405L736,384Z" fill="#86bcdc" stroke="#86bcdc" stroke-width="1.51"/><path d="M964,461L1042,332L756,323Z" fill="#6ba7d1" stroke="#6ba7d1" stroke-width="1.51"/><path d="M756,323L654,272L736,384Z" fill="#88bddc" stroke="#88bddc" stroke-width="1.51"/><path d="M752,62L654,272L756,323Z" fill="#9bc5e3" stroke="#9bc5e3" stroke-width="1.51"/><path d="M669,405L627,602L806,553Z" fill="#63a6d2" stroke="#63a6d2" stroke-width="1.51"/><path d="M436,383L627,602L669,405Z" fill="#7eb7da" stroke="#7eb7da" stroke-width="1.51"/><path d="M806,553L1017,656L964,461Z" fill="#4190c5" stroke="#4190c5" stroke-width="1.51"/><path d="M964,461L1141,483L1042,332Z" fill="#5595c8" stroke="#5595c8" stroke-width="1.51"/><path d="M1048,766L1017,656L792,828Z" fill="#2a71b2" stroke="#2a71b2" stroke-width="1.51"/><path d="M1122,591L1141,483L964,461Z" fill="#4088c1" stroke="#4088c1" stroke-width="1.51"/><path d="M1017,656L1122,591L964,461Z" fill="#3684bf" stroke="#3684bf" stroke-width="1.51"/><path d="M1042,332L936,112L756,323Z" fill="#84b2d8" stroke="#84b2d8" stroke-width="1.51"/><path d="M1100,208L936,112L1042,332Z" fill="#84aad5" stroke="#84aad5" stroke-width="1.51"/><path d="M1274,330L1100,208L1042,332Z" fill="#7199ca" stroke="#7199ca" stroke-width="1.51"/><path d="M1017,656L1116,760L1122,591Z" fill="#2271b5" stroke="#2271b5" stroke-width="1.51"/><path d="M792,828L1017,656L806,553Z" fill="#3783bf" stroke="#3783bf" stroke-width="1.51"/><path d="M936,112L752,62L756,323Z" fill="#99c0e1" stroke="#99c0e1" stroke-width="1.51"/><path d="M659,790L792,828L806,553Z" fill="#4485be" stroke="#4485be" stroke-width="1.51"/><path d="M442,328L436,383L669,405Z" fill="#9ac6e1" stroke="#9ac6e1" stroke-width="1.51"/><path d="M752,62L663,84L654,272Z" fill="#a8cde7" stroke="#a8cde7" stroke-width="1.51"/><path d="M627,602L659,790L806,553Z" fill="#5394c8" stroke="#5394c8" stroke-width="1.51"/><path d="M442,328L669,405L654,272Z" fill="#98c6e0" stroke="#98c6e0" stroke-width="1.51"/><path d="M627,602L463,685L659,790Z" fill="#6296c8" stroke="#6296c8" stroke-width="1.51"/><path d="M404,98L442,328L654,272Z" fill="#b5d4e9" stroke="#b5d4e9" stroke-width="1.51"/><path d="M1362,480L1274,330L1141,483Z" fill="#4a80ba" stroke="#4a80ba" stroke-width="1.51"/><path d="M1048,766L1116,760L1017,656Z" fill="#206bb0" stroke="#206bb0" stroke-width="1.51"/><path d="M1187,969L1116,760L1048,766Z" fill="#14579c" stroke="#14579c" stroke-width="1.51"/><path d="M1326,554L1141,483L1122,591Z" fill="#3479b7" stroke="#3479b7" stroke-width="1.51"/><path d="M1141,483L1274,330L1042,332Z" fill="#5c90c4" stroke="#5c90c4" stroke-width="1.51"/><path d="M936,112L795,-44L752,62Z" fill="#a6c8e4" stroke="#a6c8e4" stroke-width="1.51"/><path d="M1100,208L1131,87L936,112Z" fill="#8bacd6" stroke="#8bacd6" stroke-width="1.51"/><path d="M1371,120L1131,87L1100,208Z" fill="#849ecc" stroke="#849ecc" stroke-width="1.51"/><path d="M436,383L463,685L627,602Z" fill="#79afd5" stroke="#79afd5" stroke-width="1.51"/><path d="M752,62L795,-44L663,84Z" fill="#afd0e9" stroke="#afd0e9" stroke-width="1.51"/><path d="M916,-60L795,-44L936,112Z" fill="#a6c7e4" stroke="#a6c7e4" stroke-width="1.51"/><path d="M1116,760L1326,554L1122,591Z" fill="#246db0" stroke="#246db0" stroke-width="1.51"/><path d="M1131,87L916,-60L936,112Z" fill="#9ab9dd" stroke="#9ab9dd" stroke-width="1.51"/><path d="M463,685L499,823L659,790Z" fill="#648ec1" stroke="#648ec1" stroke-width="1.51"/><path d="M627,1004L808,1030L792,828Z" fill="#3c6a9e" stroke="#3c6a9e" stroke-width="1.51"/><path d="M1326,554L1362,480L1141,483Z" fill="#3976b2" stroke="#3976b2" stroke-width="1.51"/><path d="M792,828L977,964L1048,766Z" fill="#2763a0" stroke="#2763a0" stroke-width="1.51"/><path d="M1116,760L1303,860L1326,554Z" fill="#125ba4" stroke="#125ba4" stroke-width="1.51"/><path d="M808,1030L977,964L792,828Z" fill="#2e6299" stroke="#2e6299" stroke-width="1.51"/><path d="M663,84L404,98L654,272Z" fill="#b6d5e9" stroke="#b6d5e9" stroke-width="1.51"/><path d="M442,328L242,266L436,383Z" fill="#b3d3e8" stroke="#b3d3e8" stroke-width="1.51"/><path d="M436,383L316,664L463,685Z" fill="#83b2d8" stroke="#83b2d8" stroke-width="1.51"/><path d="M491,-50L404,98L663,84Z" fill="#c9e0ef" stroke="#c9e0ef" stroke-width="1.51"/><path d="M217,436L316,664L436,383Z" fill="#97c0e1" stroke="#97c0e1" stroke-width="1.51"/><path d="M463,685L316,664L499,823Z" fill="#749aca" stroke="#749aca" stroke-width="1.51"/><path d="M1362,480L1437,450L1274,330Z" fill="#4a77ac" stroke="#4a77ac" stroke-width="1.51"/><path d="M1319,-32L1173,-81L1131,87Z" fill="#94a6d1" stroke="#94a6d1" stroke-width="1.51"/><path d="M1446,639L1437,450L1362,480Z" fill="#32669e" stroke="#32669e" stroke-width="1.51"/><path d="M1446,639L1362,480L1326,554Z" fill="#2b65a1" stroke="#2b65a1" stroke-width="1.51"/><path d="M627,1004L792,828L659,790Z" fill="#4571a6" stroke="#4571a6" stroke-width="1.51"/><path d="M596,-122L663,84L795,-44Z" fill="#b9d6ec" stroke="#b9d6ec" stroke-width="1.51"/><path d="M596,-122L491,-50L663,84Z" fill="#c6dfee" stroke="#c6dfee" stroke-width="1.51"/><path d="M499,823L627,1004L659,790Z" fill="#5479aa" stroke="#5479aa" stroke-width="1.51"/><path d="M404,964L627,1004L499,823Z" fill="#5e7aa6" stroke="#5e7aa6" stroke-width="1.51"/><path d="M859,-225L596,-122L795,-44Z" fill="#b2d1e9" stroke="#b2d1e9" stroke-width="1.51"/><path d="M916,-60L859,-225L795,-44Z" fill="#a8c9e5" stroke="#a8c9e5" stroke-width="1.51"/><path d="M1131,87L1173,-81L916,-60Z" fill="#9ab4db" stroke="#9ab4db" stroke-width="1.51"/><path d="M1371,120L1100,208L1274,330Z" fill="#7994c6" stroke="#7994c6" stroke-width="1.51"/><path d="M1492,226L1371,120L1274,330Z" fill="#7286b4" stroke="#7286b4" stroke-width="1.51"/><path d="M1187,969L1303,860L1116,760Z" fill="#0e4b8f" stroke="#0e4b8f" stroke-width="1.51"/><path d="M1187,969L1048,766L977,964Z" fill="#175090" stroke="#175090" stroke-width="1.51"/><path d="M220,168L242,266L404,98Z" fill="#d0e2f2" stroke="#d0e2f2" stroke-width="1.51"/><path d="M404,98L242,266L442,328Z" fill="#c4daee" stroke="#c4daee" stroke-width="1.51"/><path d="M242,266L217,436L436,383Z" fill="#b2d2e8" stroke="#b2d2e8" stroke-width="1.51"/><path d="M1112,1130L1187,969L977,964Z" fill="#154f8e" stroke="#154f8e" stroke-width="1.51"/><path d="M1303,860L1446,639L1326,554Z" fill="#15569a" stroke="#15569a" stroke-width="1.51"/><path d="M1173,-81L925,-208L916,-60Z" fill="#9ebbde" stroke="#9ebbde" stroke-width="1.51"/><path d="M925,-208L859,-225L916,-60Z" fill="#a4c5e3" stroke="#a4c5e3" stroke-width="1.51"/><path d="M1371,120L1319,-32L1131,87Z" fill="#8a9cc9" stroke="#8a9cc9" stroke-width="1.51"/><path d="M1173,-81L1174,-274L925,-208Z" fill="#99b2da" stroke="#99b2da" stroke-width="1.51"/><path d="M259,900L404,964L499,823Z" fill="#6c7fab" stroke="#6c7fab" stroke-width="1.51"/><path d="M217,436L182,590L316,664Z" fill="#93bbdd" stroke="#93bbdd" stroke-width="1.51"/><path d="M66,414L182,590L217,436Z" fill="#a5c9e5" stroke="#a5c9e5" stroke-width="1.51"/><path d="M242,266L141,246L217,436Z" fill="#c1dbed" stroke="#c1dbed" stroke-width="1.51"/><path d="M307,-54L220,168L404,98Z" fill="#dae8f6" stroke="#dae8f6" stroke-width="1.51"/><path d="M1371,120L1429,-40L1319,-32Z" fill="#8994bc" stroke="#8994bc" stroke-width="1.51"/><path d="M1437,450L1492,226L1274,330Z" fill="#5c7caa" stroke="#5c7caa" stroke-width="1.51"/><path d="M1624,463L1492,226L1437,450Z" fill="#5173a3" stroke="#5173a3" stroke-width="1.51"/><path d="M1187,969L1264,981L1303,860Z" fill="#0a4184" stroke="#0a4184" stroke-width="1.51"/><path d="M1303,860L1471,768L1446,639Z" fill="#0d488b" stroke="#0d488b" stroke-width="1.51"/><path d="M1112,1130L1264,981L1187,969Z" fill="#0f4688" stroke="#0f4688" stroke-width="1.51"/><path d="M227,754L499,823L316,664Z" fill="#7c99ca" stroke="#7c99ca" stroke-width="1.51"/><path d="M182,590L227,754L316,664Z" fill="#89aad5" stroke="#89aad5" stroke-width="1.51"/><path d="M1446,639L1624,463L1437,450Z" fill="#33649a" stroke="#33649a" stroke-width="1.51"/><path d="M1473,1037L1471,768L1303,860Z" fill="#083370" stroke="#083370" stroke-width="1.51"/><path d="M778,1188L808,1030L627,1004Z" fill="#3d6a9e" stroke="#3d6a9e" stroke-width="1.51"/><path d="M778,1188L977,1134L808,1030Z" fill="#2f6299" stroke="#2f6299" stroke-width="1.51"/><path d="M808,1030L977,1134L977,964Z" fill="#275d96" stroke="#275d96" stroke-width="1.51"/><path d="M404,964L587,1105L627,1004Z" fill="#5a78a5" stroke="#5a78a5" stroke-width="1.51"/><path d="M491,-50L307,-54L404,98Z" fill="#dae9f6" stroke="#dae9f6" stroke-width="1.51"/><path d="M505,-208L307,-54L491,-50Z" fill="#d7e7f4" stroke="#d7e7f4" stroke-width="1.51"/><path d="M505,-208L491,-50L596,-122Z" fill="#cce3f0" stroke="#cce3f0" stroke-width="1.51"/><path d="M220,168L141,246L242,266Z" fill="#d0e2f3" stroke="#d0e2f3" stroke-width="1.51"/><path d="M74,168L141,246L220,168Z" fill="#d8e6f5" stroke="#d8e6f5" stroke-width="1.51"/><path d="M577,-248L505,-208L596,-122Z" fill="#c9e1ef" stroke="#c9e1ef" stroke-width="1.51"/><path d="M859,-225L577,-248L596,-122Z" fill="#bad7ec" stroke="#bad7ec" stroke-width="1.51"/><path d="M977,1134L1112,1130L977,964Z" fill="#1d5492" stroke="#1d5492" stroke-width="1.51"/><path d="M404,964L526,1209L587,1105Z" fill="#5e7aa6" stroke="#5e7aa6" stroke-width="1.51"/><path d="M227,754L259,900L499,823Z" fill="#778ebd" stroke="#778ebd" stroke-width="1.51"/><path d="M124,819L259,900L227,754Z" fill="#8093c0" stroke="#8093c0" stroke-width="1.51"/><path d="M587,1105L778,1188L627,1004Z" fill="#4870a1" stroke="#4870a1" stroke-width="1.51"/><path d="M977,1134L778,1188L1112,1130Z" fill="#235a95" stroke="#235a95" stroke-width="1.51"/><path d="M1553,91L1429,-40L1371,120Z" fill="#808bb1" stroke="#808bb1" stroke-width="1.51"/><path d="M1385,-177L1174,-274L1173,-81Z" fill="#92a3ce" stroke="#92a3ce" stroke-width="1.51"/><path d="M141,246L66,414L217,436Z" fill="#bbd8eb" stroke="#bbd8eb" stroke-width="1.51"/><path d="M182,590L124,819L227,754Z" fill="#89a4d1" stroke="#89a4d1" stroke-width="1.51"/><path d="M1622,680L1624,463L1446,639Z" fill="#245b95" stroke="#245b95" stroke-width="1.51"/><path d="M1492,226L1553,91L1371,120Z" fill="#7785ae" stroke="#7785ae" stroke-width="1.51"/><path d="M925,-208L1174,-274L859,-225Z" fill="#9fbcdf" stroke="#9fbcdf" stroke-width="1.51"/><path d="M859,-225L1174,-274L577,-248Z" fill="#a7c8e4" stroke="#a7c8e4" stroke-width="1.51"/><path d="M1385,-177L1173,-81L1319,-32Z" fill="#909ec9" stroke="#909ec9" stroke-width="1.51"/><path d="M1634,169L1553,91L1492,226Z" fill="#7584ad" stroke="#7584ad" stroke-width="1.51"/><path d="M1471,768L1622,680L1446,639Z" fill="#144d8d" stroke="#144d8d" stroke-width="1.51"/><path d="M1672,854L1622,680L1471,768Z" fill="#0b4385" stroke="#0b4385" stroke-width="1.51"/><path d="M1473,1037L1303,860L1264,981Z" fill="#093877" stroke="#093877" stroke-width="1.51"/><path d="M-10,641L124,819L182,590Z" fill="#92aed7" stroke="#92aed7" stroke-width="1.51"/><path d="M331,1195L526,1209L404,964Z" fill="#687da9" stroke="#687da9" stroke-width="1.51"/><path d="M91,-94L74,168L220,168Z" fill="#e5f0f9" stroke="#e5f0f9" stroke-width="1.51"/><path d="M141,246L74,168L66,414Z" fill="#cfe3f2" stroke="#cfe3f2" stroke-width="1.51"/><path d="M1494,-215L1385,-177L1429,-40Z" fill="#878fb4" stroke="#878fb4" stroke-width="1.51"/><path d="M1429,-40L1385,-177L1319,-32Z" fill="#8b95bc" stroke="#8b95bc" stroke-width="1.51"/><path d="M1112,1130L1344,1090L1264,981Z" fill="#0a4285" stroke="#0a4285" stroke-width="1.51"/><path d="M1494,1078L1344,1090L1692,1150Z" fill="#08306b" stroke="#08306b" stroke-width="1.51"/><path d="M1673,-68L1494,-215L1429,-40Z" fill="#878eb3" stroke="#878eb3" stroke-width="1.51"/><path d="M1698,282L1634,169L1492,226Z" fill="#6e80ab" stroke="#6e80ab" stroke-width="1.51"/><path d="M1698,282L1492,226L1624,463Z" fill="#5d79a6" stroke="#5d79a6" stroke-width="1.51"/><path d="M587,1105L526,1209L778,1188Z" fill="#4d72a2" stroke="#4d72a2" stroke-width="1.51"/><path d="M331,1195L404,964L259,900Z" fill="#7081ac" stroke="#7081ac" stroke-width="1.51"/><path d="M1815,395L1698,282L1624,463Z" fill="#5173a3" stroke="#5173a3" stroke-width="1.51"/><path d="M1344,1090L1473,1037L1264,981Z" fill="#093775" stroke="#093775" stroke-width="1.51"/><path d="M-105,498L-10,641L66,414Z" fill="#abcbe6" stroke="#abcbe6" stroke-width="1.51"/><path d="M66,414L-10,641L182,590Z" fill="#a1c3e2" stroke="#a1c3e2" stroke-width="1.51"/><path d="M307,-54L91,-94L220,168Z" fill="#e9f1fb" stroke="#e9f1fb" stroke-width="1.51"/><path d="M505,-208L306,-290L307,-54Z" fill="#ddeaf7" stroke="#ddeaf7" stroke-width="1.51"/><path d="M577,-248L306,-290L505,-208Z" fill="#d3e6f3" stroke="#d3e6f3" stroke-width="1.51"/><path d="M1174,-274L306,-290L577,-248Z" fill="#b9d6ec" stroke="#b9d6ec" stroke-width="1.51"/><path d="M1473,1037L1672,854L1471,768Z" fill="#08326e" stroke="#08326e" stroke-width="1.51"/><path d="M1344,1090L1494,1078L1473,1037Z" fill="#08306b" stroke="#08306b" stroke-width="1.51"/><path d="M1692,1150L1344,1090L1112,1130Z" fill="#093572" stroke="#093572" stroke-width="1.51"/><path d="M72,1004L259,900L124,819Z" fill="#7c88b0" stroke="#7c88b0" stroke-width="1.51"/><path d="M72,1004L331,1195L259,900Z" fill="#7885ae" stroke="#7885ae" stroke-width="1.51"/><path d="M1673,-68L1429,-40L1553,91Z" fill="#878eb3" stroke="#878eb3" stroke-width="1.51"/><path d="M1385,-177L1494,-215L1174,-274Z" fill="#8c97c0" stroke="#8c97c0" stroke-width="1.51"/><path d="M1673,-68L1553,91L1634,169Z" fill="#808ab1" stroke="#808ab1" stroke-width="1.51"/><path d="M306,-290L91,-94L307,-54Z" fill="#e7f0fa" stroke="#e7f0fa" stroke-width="1.51"/><path d="M-117,241L-105,498L66,414Z" fill="#c2dced" stroke="#c2dced" stroke-width="1.51"/><path d="M1718,964L1672,854L1473,1037Z" fill="#08306b" stroke="#08306b" stroke-width="1.51"/><path d="M1878,666L1815,395L1624,463Z" fill="#34659b" stroke="#34659b" stroke-width="1.51"/><path d="M-10,641L-58,747L124,819Z" fill="#94a9d2" stroke="#94a9d2" stroke-width="1.51"/><path d="M-117,241L66,414L74,168Z" fill="#d6e7f4" stroke="#d6e7f4" stroke-width="1.51"/><path d="M-209,725L-58,747L-10,641Z" fill="#97afd7" stroke="#97afd7" stroke-width="1.51"/><path d="M91,-94L-57,122L74,168Z" fill="#eef5fc" stroke="#eef5fc" stroke-width="1.51"/><path d="M-26,981L72,1004L124,819Z" fill="#838cb2" stroke="#838cb2" stroke-width="1.51"/><path d="M1773,150L1673,-68L1634,169Z" fill="#7d89b0" stroke="#7d89b0" stroke-width="1.51"/><path d="M1698,282L1773,150L1634,169Z" fill="#7181ac" stroke="#7181ac" stroke-width="1.51"/><path d="M1878,666L1624,463L1622,680Z" fill="#235994" stroke="#235994" stroke-width="1.51"/><path d="M1819,272L1773,150L1698,282Z" fill="#6d7fab" stroke="#6d7fab" stroke-width="1.51"/><path d="M-57,122L-117,241L74,168Z" fill="#e4eef9" stroke="#e4eef9" stroke-width="1.51"/><path d="M1815,395L1819,272L1698,282Z" fill="#5e7aa6" stroke="#5e7aa6" stroke-width="1.51"/><path d="M1672,854L1838,743L1622,680Z" fill="#0d4486" stroke="#0d4486" stroke-width="1.51"/><path d="M1494,1078L1718,964L1473,1037Z" fill="#08306b" stroke="#08306b" stroke-width="1.51"/><path d="M72,1004L94,1172L331,1195Z" fill="#7b87b0" stroke="#7b87b0" stroke-width="1.51"/><path d="M-58,747L-26,981L124,819Z" fill="#8b96bf" stroke="#8b96bf" stroke-width="1.51"/><path d="M-228,900L-26,981L-58,747Z" fill="#8992b9" stroke="#8992b9" stroke-width="1.51"/><path d="M1718,964L1838,743L1672,854Z" fill="#093675" stroke="#093675" stroke-width="1.51"/><path d="M1815,395L1878,666L1819,272Z" fill="#416ca0" stroke="#416ca0" stroke-width="1.51"/><path d="M-243,130L-262,289L-117,241Z" fill="#dfebf7" stroke="#dfebf7" stroke-width="1.51"/><path d="M91,-94L-81,-53L-57,122Z" fill="#f7fbff" stroke="#f7fbff" stroke-width="1.51"/><path d="M-24,-196L-81,-53L91,-94Z" fill="#f7fbff" stroke="#f7fbff" stroke-width="1.51"/><path d="M-12,1141L94,1172L72,1004Z" fill="#838cb2" stroke="#838cb2" stroke-width="1.51"/><path d="M1838,743L1878,666L1622,680Z" fill="#144d8d" stroke="#144d8d" stroke-width="1.51"/><path d="M1866,-288L1621,-293L1673,-68Z" fill="#878eb3" stroke="#878eb3" stroke-width="1.51"/><path d="M1673,-68L1621,-293L1494,-215Z" fill="#878eb3" stroke="#878eb3" stroke-width="1.51"/><path d="M1494,-215L1621,-293L1174,-274Z" fill="#878fb5" stroke="#878fb5" stroke-width="1.51"/><path d="M1174,-274L1621,-293L306,-290Z" fill="#9cb8dc" stroke="#9cb8dc" stroke-width="1.51"/><path d="M1897,-99L1673,-68L1773,150Z" fill="#878eb3" stroke="#878eb3" stroke-width="1.51"/><path d="M306,-290L59,-283L91,-94Z" fill="#edf4fc" stroke="#edf4fc" stroke-width="1.51"/><path d="M-105,498L-219,570L-10,641Z" fill="#a4c4e2" stroke="#a4c4e2" stroke-width="1.51"/><path d="M-253,519L-219,570L-105,498Z" fill="#a9c9e5" stroke="#a9c9e5" stroke-width="1.51"/><path d="M-253,519L-105,498L-262,289Z" fill="#b7d6eb" stroke="#b7d6eb" stroke-width="1.51"/><path d="M59,-283L-24,-196L91,-94Z" fill="#f4f9fe" stroke="#f4f9fe" stroke-width="1.51"/><path d="M-219,570L-209,725L-10,641Z" fill="#9cb8dc" stroke="#9cb8dc" stroke-width="1.51"/><path d="M-26,981L-12,1141L72,1004Z" fill="#868eb3" stroke="#868eb3" stroke-width="1.51"/><path d="M-219,570L-253,519L-209,725Z" fill="#a0bee0" stroke="#a0bee0" stroke-width="1.51"/><path d="M-262,289L-105,498L-117,241Z" fill="#cae2f0" stroke="#cae2f0" stroke-width="1.51"/><path d="M1838,743L1905,1038L1878,666Z" fill="#093c7d" stroke="#093c7d" stroke-width="1.51"/><path d="M1718,964L1905,1038L1838,743Z" fill="#08306b" stroke="#08306b" stroke-width="1.51"/><path d="M1494,1078L1692,1150L1718,964Z" fill="#08306b" stroke="#08306b" stroke-width="1.51"/><path d="M778,1188L1692,1150L1112,1130Z" fill="#0e4687" stroke="#0e4687" stroke-width="1.51"/><path d="M526,1209L1692,1150L778,1188Z" fill="#1f5793" stroke="#1f5793" stroke-width="1.51"/><path d="M-193,1162L-12,1141L-26,981Z" fill="#878eb3" stroke="#878eb3" stroke-width="1.51"/><path d="M-243,130L-117,241L-57,122Z" fill="#e5eff9" stroke="#e5eff9" stroke-width="1.51"/><path d="M-243,130L-57,122L-81,-53Z" fill="#f0f6fc" stroke="#f0f6fc" stroke-width="1.51"/><path d="M-268,-59L-243,130L-81,-53Z" fill="#f7faff" stroke="#f7faff" stroke-width="1.51"/><path d="M-209,725L-228,900L-58,747Z" fill="#91a1cd" stroke="#91a1cd" stroke-width="1.51"/><path d="M-253,519L-228,900L-209,725Z" fill="#97add6" stroke="#97add6" stroke-width="1.51"/><path d="M1878,666L1897,-99L1819,272Z" fill="#657ca8" stroke="#657ca8" stroke-width="1.51"/><path d="M1819,272L1897,-99L1773,150Z" fill="#7b87af" stroke="#7b87af" stroke-width="1.51"/><path d="M1879,1114L1905,1038L1718,964Z" fill="#08306b" stroke="#08306b" stroke-width="1.51"/><path d="M1878,666L1905,1038L1897,-99Z" fill="#2f6299" stroke="#2f6299" stroke-width="1.51"/><path d="M-243,130L-268,-59L-262,289Z" fill="#eaf2fb" stroke="#eaf2fb" stroke-width="1.51"/><path d="M-232,-247L-268,-59L-81,-53Z" fill="#f7fbff" stroke="#f7fbff" stroke-width="1.51"/><path d="M-232,-247L-81,-53L-24,-196Z" fill="#f7fbff" stroke="#f7fbff" stroke-width="1.51"/><path d="M1692,1150L1879,1114L1718,964Z" fill="#08306b" stroke="#08306b" stroke-width="1.51"/><path d="M1897,-99L1866,-288L1673,-68Z" fill="#878eb3" stroke="#878eb3" stroke-width="1.51"/><path d="M-12,1141L-193,1162L94,1172Z" fill="#878eb3" stroke="#878eb3" stroke-width="1.51"/><path d="M94,1172L-193,1162L331,1195Z" fill="#818bb2" stroke="#818bb2" stroke-width="1.51"/><path d="M331,1195L-193,1162L526,1209Z" fill="#7885ae" stroke="#7885ae" stroke-width="1.51"/><path d="M-228,900L-193,1162L-26,981Z" fill="#878eb3" stroke="#878eb3" stroke-width="1.51"/><path d="M59,-283L-232,-247L-24,-196Z" fill="#f7fbff" stroke="#f7fbff" stroke-width="1.51"/></svg>